# AST/ASF file generated using VICON BodyLanguage
# -----------------------------------------------
:version 1.10
:name VICON
:units
  mass 1.0
  length 0.45
  angle deg
:documentation
   .ast/.asf automatically generated from VICON data using
   VICON BodyBuilder and BodyLanguage model FoxedUp or BRILLIANT.MOD
:root
   order TX TY TZ RX RY RZ
   axis XYZ
   position 0 0 0  
   orientation 0 0 0 
:bonedata
  begin
     id 1 
     name lhipjoint
     direction 0.660183 -0.676772 0.325788 
     length 2.75133 
     axis 0 0 0  XYZ
  end
  begin
     id 2 
     name lfemur
     direction 0.34202 -0.939693 0  
     length 7.70317  
     axis 0 0 20  XYZ
    dof rx ry rz
    limits (-160.0 20.0)
           (-70.0 70.0)
           (-60.0 70.0)
  end
  begin
     id 3 
     name ltibia
     direction 0.342105 -0.939662 0   
     length 7.18701   
     axis 0 0 20   XYZ
    dof rx
    limits (-10.0 170.0)
  end
  begin
     id 4 
     name lfoot
     direction 0.14163 -0.389126 0.910232   
     length 2.41719   
     axis -90 7.62852e-016 20   XYZ
    dof rx rz
    limits (-45.0 90.0)
           (-70.0 20.0)
  end
  begin
     id 5 
     name ltoes
     direction 1.53533e-011 -4.21926e-011 1   
     length 1.18611   
     axis -90 7.62852e-016 20   XYZ
    dof rx
    limits (-90.0 20.0)
  end
  begin
     id 6 
     name rhipjoint
     direction -0.6658 -0.67229 0.323631   
     length 2.76968  
     axis 0 0 0  XYZ 
  end
  begin
     id 7 
     name rfemur
     direction -0.34202 -0.939693 0   
     length 7.92547   
     axis 0 0 -20   XYZ
    dof rx ry rz
    limits (-160.0 20.0)
           (-70.0 70.0)
           (-70.0 60.0)
  end
  begin
     id 8 
     name rtibia
     direction -0.342022 -0.939692 0   
     length 7.22641   
     axis 0 0 -20   XYZ
    dof rx
    limits (-10.0 170.0)
 end
 begin
     id 9 
     name rfoot
     direction -0.105675 -0.29034 0.951071   
     length 2.48149  
     axis -90 -7.62852e-016 -20   XYZ
    dof rx rz
    limits (-45.0 90.0)
           (-20.0 70.0)
  end
  begin
     id 10 
     name rtoes
     direction -1.5349e-011 -4.21859e-011 1   
     length 1.23343   
     axis -90 -7.62852e-016 -20   XYZ
    dof rx
    limits (-90.0 20.0)
  end
  begin
     id 11 
     name lowerback
     direction 0.0104173 0.993624 -0.112266   
     length 2.00527   
     axis 0 0 0   XYZ
    dof rx ry rz
    limits (-20.0 45.0)
           (-30.0 30.0)
           (-30.0 30.0)
  end
  begin
     id 12 
     name upperback
     direction 0.00733149 0.999856 -0.0152913   
     length 2.01385   
     axis 0 0 0   XYZ
    dof rx ry rz
    limits (-20.0 45.0)
           (-30.0 30.0)
           (-30.0 30.0)
  end
  begin
     id 13 
     name thorax
     direction 0.0026304 0.999318 0.036841   
     length 2.03734   
     axis 0 0 0   XYZ
    dof rx ry rz
    limits (-20.0 45.0)
           (-30.0 30.0)
           (-30.0 30.0)
  end
  begin
     id 14 
     name lowerneck
     direction 0.0293154 0.998757 0.0403082   
     length 1.65303   
     axis 0 0 0   XYZ
    dof rx ry rz
    limits (-20.0 45.0)
           (-30.0 30.0)
           (-30.0 30.0)
  end
  begin
     id 15 
     name upperneck
     direction -0.0376619 0.998184 -0.0470083   
     length 1.60926   
     axis 0 0 0   XYZ
    dof rx ry rz
    limits (-20.0 45.0)
           (-30.0 30.0)
           (-30.0 30.0)
  end
  begin
     id 16
     name head
     direction -0.0170133 0.999635 -0.0209778  
     length 1.73625  
     axis 0 0 0   XYZ
    dof rx ry rz
    limits (-20.0 45.0)
           (-30.0 30.0)
           (-30.0 30.0)
  end
  begin
     id 17 
     name lclavicle
     direction 0.919857 0.39181 -0.0186333  
     length 3.75313  
     axis 0 0 0   XYZ
    dof ry rz
    limits (-20.0 10.0)
           (0.0 20.0)
  end
  begin
     id 18 
     name lhumerus
     direction 1 -4.48988e-011 1.44029e-027   
     length 5.49313   
     axis 180 -30 -90   XYZ
    dof rx ry rz
    limits (-60.0 90.0)
           (-90.0 90.0)
           (-90.0 90.0)
  end
  begin
     id 19
     name lradius
     direction 1 -4.48924e-011 7.46281e-027   
     length 3.29037   
     axis 180 -30 -90   XYZ
    dof rx
    limits (-10.0 170.0)
  end
  begin
     id 20
     name lwrist
     direction 1 -4.48955e-011 2.19879e-026   
     length 1.64519   
     axis -1.34358e-014 90 90   XYZ
    dof ry
    limits (-180.0 0.0)
 end
  begin
     id 21 
     name lhand
     direction 1 -4.48978e-011 4.39747e-026   
     length 0.729656   
     axis -2.80598e-014 90 90   XYZ
    dof rx rz
    limits (-90.0 90.0)
           (-45.0 45.0)
  end
  begin
     id 22 
     name lfingers
     direction 1 -4.49071e-011 8.79411e-026   
     length 0.588268   
     axis -5.61193e-014 90 90   XYZ
    dof rx
    limits (0.0 90.0)
  end
  begin
     id 23
     name lthumb
     direction 0.707107 -6.34817e-011 0.707107   
     length 0.844638   
     axis -90 45 -9.86923e-015   XYZ
    dof rx rz
    limits (-45.0 45.0)
           (-45.0 45.0)
  end
  begin
     id 24 
     name rclavicle
     direction -0.919898 0.388279 0.0550233   
     length 3.7171  
     axis 0 0 0   XYZ 
    dof ry rz
    limits (-10.0 20.0)
           (-20.0 0.0)
  end
  begin
     id 25 
     name rhumerus
     direction -1 -4.48968e-011 9.98372e-028  
     length 5.23684   
     axis 180 30 90   XYZ
    dof rx ry rz
    limits (-90.0 60.0)
           (-90.0 90.0)
           (-90.0 90.0)
  end
  begin
     id 26 
     name rradius
     direction -1 -4.48956e-011 1.01023e-026   
     length 3.38251   
     axis 180 30 90   XYZ
    dof rx
    limits (-10.0 170.0)
  end
  begin
     id 27 
     name rwrist
     direction -1 -4.4892e-011 2.19886e-026   
     length 1.69126   
     axis -1.34358e-014 -90 -90   XYZ
    dof ry
    limits (-180.0 0.0)
  end
  begin
     id 28
     name rhand
     direction -1 -4.49024e-011 4.39727e-026   
     length 0.691454   
     axis -2.80598e-014 -90 -90   XYZ
    dof rx rz
    limits (-90.0 90.0)
           (-45.0 45.0)
  end
  begin
     id 29
     name rfingers
     direction -1 -4.49097e-011 8.79388e-026   
     length 0.557468   
     axis -5.61193e-014 -90 -90   XYZ
    dof rx
    limits (0.0 90.0)
  end
  begin
     id 30
     name rthumb
     direction -0.707107 -6.34938e-011 0.707107   
     length 0.800416   
     axis -90 -45 9.86923e-015   XYZ
    dof rx rz
    limits (-45.0 45.0)
           (-45.0 45.0)
  end
:hierarchy
  begin
    root lhipjoint rhipjoint lowerback
    lhipjoint lfemur
    lfemur ltibia
    ltibia lfoot
    lfoot ltoes
    rhipjoint rfemur
    rfemur rtibia
    rtibia rfoot
    rfoot rtoes
    lowerback upperback
    upperback thorax
    thorax lowerneck lclavicle rclavicle
    lowerneck upperneck
    upperneck head
    lclavicle lhumerus
    lhumerus lradius
    lradius lwrist
    lwrist lhand lthumb
    lhand lfingers
    rclavicle rhumerus
    rhumerus rradius
    rradius rwrist
    rwrist rhand rthumb
    rhand rfingers
  end

#!OML:ASF H:\BabyWalks\Project 1\Capture day 1\Session 1\baby.ASF
:FULLY-SPECIFIED
:DEGREES
595
root -24.1023 17.6735 -3.54134 -35.8 79.3447 -43.9129
lowerback 13.3601 1.27748 0.970716
upperback 3.88431 1.98349 0.551281
thorax -3.38799 1.0398 -0.292506
lowerneck 2.86493 0.485592 4.03992
upperneck -16.6613 1.09211 -1.45225
head -5.46029 0.520382 -1.19883
rclavicle -8.94531e-015 2.46493e-014
rhumerus -75.205 50.8944 -111.364
rradius 81.1994
rwrist 18.5396
rhand -18.5217 16.2513
rfingers 7.12502
rthumb 7.76681 -13.5861
lclavicle -8.94531e-015 2.46493e-014
lhumerus -63.0486 -48.3798 102.42
lradius 84.6267
lwrist -8.89503
lhand 6.17867 -11.9243
lfingers 7.12502
lthumb 31.4936 15.3819
rfemur -5.74259 -3.76615 22.2131
rtibia 49.5431
rfoot -16.2152 -0.208869
rtoes -21.569
lfemur -32.6121 -0.426604 -10.1224
ltibia 34.3762
lfoot -13.1783 -8.30885
ltoes 4.92801
596
root -24.0826 17.7179 -3.53224 -36.6238 79.2034 -44.6538
lowerback 13.6018 1.21581 0.981495
upperback 4.00494 1.92032 0.714724
thorax -3.39879 1.0117 -0.122628
lowerneck 2.86615 0.546261 3.95242
upperneck -16.8112 1.16992 -1.47382
head -5.50507 0.565964 -1.19682
rclavicle -2.78299e-014 -7.95139e-015
rhumerus -75.2241 51.1067 -110.987
rradius 81.6456
rwrist 18.6736
rhand -18.5015 16.3295
rfingers 7.12502
rthumb 7.78629 -13.5071
lclavicle -2.78299e-014 -7.95139e-015
lhumerus -62.9663 -48.0129 102.461
lradius 84.4865
lwrist -8.9366
lhand 6.01652 -11.9624
lfingers 7.12502
lthumb 31.3391 15.3739
rfemur -6.92294 -3.91499 22.6147
rtibia 49.7588
rfoot -16.6532 -0.476542
rtoes -21.6278
lfemur -31.9018 -0.602215 -9.82475
ltibia 33.4476
lfoot -12.8764 -7.99481
ltoes 4.75602
597
root -24.0628 17.7554 -3.52067 -37.363 79.0201 -45.2569
lowerback 13.8831 1.17385 0.965413
upperback 4.12899 1.88126 0.883658
thorax -3.42767 0.995688 0.0637462
lowerneck 2.87765 0.604447 3.87124
upperneck -16.9546 1.24775 -1.47695
head -5.54988 0.609902 -1.19013
rclavicle -1.23246e-014 -1.66979e-014
rhumerus -75.2524 51.3257 -110.623
rradius 82.1105
rwrist 18.8
rhand -18.4219 16.4281
rfingers 7.12502
rthumb 7.86316 -13.4057
lclavicle -1.23246e-014 -1.66979e-014
lhumerus -62.9032 -47.6449 102.51
lradius 84.3445
lwrist -8.97532
lhand 5.82899 -12.003
lfingers 7.12502
lthumb 31.1604 15.3678
rfemur -8.00181 -3.96386 23.0478
rtibia 49.8137
rfoot -17.0936 -0.74283
rtoes -21.663
lfemur -31.1992 -0.701361 -9.5238
ltibia 32.6702
lfoot -12.644 -7.71616
ltoes 4.41252
598
root -24.0432 17.7854 -3.51334 -38.3856 78.9286 -46.1977
lowerback 14.0966 1.08056 1.04108
upperback 4.23417 1.78493 1.03352
thorax -3.43581 0.950966 0.189928
lowerneck 2.89491 0.662501 3.79759
upperneck -17.0908 1.32765 -1.46915
head -5.59356 0.653625 -1.18141
rclavicle 8.74653e-015 3.18055e-015
rhumerus -75.2782 51.5581 -110.27
rradius 82.5811
rwrist 18.9087
rhand -18.3571 16.5135
rfingers 7.12502
rthumb 7.92571 -13.3179
lclavicle 8.74653e-015 3.18055e-015
lhumerus -62.8435 -47.2791 102.557
lradius 84.1994
lwrist -9.00012
lhand 5.67813 -12.038
lfingers 7.12502
lthumb 31.0166 15.3603
rfemur -9.09094 -4.08439 23.468
rtibia 49.7138
rfoot -17.5542 -0.954346
rtoes -21.7109
lfemur -30.6777 -0.88159 -9.25507
ltibia 32.0425
lfoot -12.4244 -7.4588
ltoes 3.95238
599
root -24.0236 17.8086 -3.50513 -39.4054 78.8505 -47.1173
lowerback 14.3181 0.980819 1.11098
upperback 4.33355 1.67972 1.17536
thorax -3.45376 0.901838 0.312838
lowerneck 2.91519 0.7221 3.73172
upperneck -17.2133 1.41153 -1.45095
head -5.63359 0.698022 -1.17085
rclavicle -1.45113e-014 -1.11319e-014
rhumerus -75.3156 51.8079 -109.953
rradius 83.051
rwrist 18.9993
rhand -18.2906 16.584
rfingers 7.12502
rthumb 7.98988 -13.245
lclavicle -1.45113e-014 -1.11319e-014
lhumerus -62.792 -46.9084 102.6
lradius 84.0467
lwrist -9.01734
lhand 5.52456 -12.0772
lfingers 7.12502
lthumb 30.8702 15.3489
rfemur -10.1076 -4.15921 23.8842
rtibia 49.4548
rfoot -18.0193 -1.13833
rtoes -21.7878
lfemur -30.217 -1.05133 -9.00688
ltibia 31.5598
lfoot -12.2496 -7.23366
ltoes 3.48869
600
root -24.0044 17.8255 -3.49628 -40.3742 78.7889 -47.9724
lowerback 14.5475 0.876135 1.17458
upperback 4.42553 1.56709 1.30214
thorax -3.48286 0.848971 0.42525
lowerneck 2.93387 0.782728 3.67486
upperneck -17.3173 1.49827 -1.42405
head -5.66766 0.742558 -1.15906
rclavicle -2.26615e-014 -7.95139e-016
rhumerus -75.3559 52.0732 -109.676
rradius 83.5031
rwrist 19.0669
rhand -18.2347 16.6492
rfingers 7.12502
rthumb 8.0438 -13.1777
lclavicle -2.26615e-014 -7.95139e-016
lhumerus -62.7463 -46.5331 102.63
lradius 83.8876
lwrist -9.0279
lhand 5.37167 -12.1186
lfingers 7.12502
lthumb 30.7244 15.335
rfemur -11.0604 -4.18581 24.2808
rtibia 49.0407
rfoot -18.4697 -1.28608
rtoes -21.8469
lfemur -29.8212 -1.22603 -8.78712
ltibia 31.2145
lfoot -12.1277 -7.02274
ltoes 3.00653
601
root -23.9856 17.8371 -3.48668 -41.2862 78.7477 -48.7607
lowerback 14.7937 0.765754 1.23318
upperback 4.50288 1.44604 1.40938
thorax -3.53546 0.791669 0.521812
lowerneck 2.94601 0.846446 3.62901
upperneck -17.3961 1.58988 -1.39238
head -5.69265 0.788343 -1.14757
rclavicle 9.93923e-016 -7.95139e-015
rhumerus -75.4065 52.347 -109.457
rradius 83.9283
rwrist 19.1161
rhand -18.2051 16.6919
rfingers 7.12502
rthumb 8.07238 -13.1339
lclavicle 9.93923e-016 -7.95139e-015
lhumerus -62.7144 -46.1516 102.648
lradius 83.7246
lwrist -9.02714
lhand 5.22338 -12.1669
lfingers 7.12502
lthumb 30.583 15.3132
rfemur -11.9504 -4.16356 24.6507
rtibia 48.4702
rfoot -18.8977 -1.38253
rtoes -21.7576
lfemur -29.4889 -1.40132 -8.59952
ltibia 30.9957
lfoot -12.0498 -6.83157
ltoes 2.55757
602
root -23.9675 17.844 -3.47628 -42.117 78.734 -49.4669
lowerback 15.04 0.651158 1.27692
upperback 4.56966 1.31662 1.49749
thorax -3.59854 0.730036 0.608969
lowerneck 2.95153 0.911501 3.59158
upperneck -17.4564 1.68367 -1.35814
head -5.71077 0.834415 -1.13658
rclavicle 1.70955e-014 -3.18055e-015
rhumerus -75.4495 52.6319 -109.28
rradius 84.3179
rwrist 19.1501
rhand -18.1757 16.7339
rfingers 7.12502
rthumb 8.10079 -13.0908
lclavicle 1.70955e-014 -3.18055e-015
lhumerus -62.6801 -45.7641 102.645
lradius 83.5587
lwrist -9.01134
lhand 5.06762 -12.2208
lfingers 7.12502
lthumb 30.4345 15.2869
rfemur -12.7892 -4.09287 24.9815
rtibia 47.7493
rfoot -19.312 -1.43071
rtoes -21.562
lfemur -29.2226 -1.57861 -8.45078
ltibia 30.8902
lfoot -12.02 -6.66683
ltoes 2.13788
603
root -23.9502 17.8472 -3.46479 -42.8798 78.7512 -50.1055
lowerback 15.2822 0.535758 1.3018
upperback 4.62789 1.18254 1.56825
thorax -3.66794 0.665962 0.690334
lowerneck 2.95484 0.971893 3.56163
upperneck -17.5049 1.77121 -1.32401
head -5.72496 0.876896 -1.12636
rclavicle 1.68967e-014 -1.59028e-015
rhumerus -75.4746 52.9169 -109.133
rradius 84.6675
rwrist 19.1849
rhand -18.1662 16.7643
rfingers 7.12502
rthumb 8.1099 -13.0601
lclavicle 1.68967e-014 -1.59028e-015
lhumerus -62.6375 -45.3813 102.627
lradius 83.3872
lwrist -8.98199
lhand 4.95008 -12.2704
lfingers 7.12502
lthumb 30.3224 15.258
rfemur -13.5765 -3.97394 25.2706
rtibia 46.8854
rfoot -19.7128 -1.44596
rtoes -21.3743
lfemur -29.0169 -1.75914 -8.3396
ltibia 30.882
lfoot -12.0173 -6.53145
ltoes 1.80877
604
root -23.9333 17.847 -3.45208 -43.56 78.7891 -50.656
lowerback 15.5118 0.427468 1.30532
upperback 4.68781 1.05383 1.62567
thorax -3.72843 0.604634 0.769837
lowerneck 2.94938 1.0267 3.53271
upperneck -17.5431 1.85146 -1.28522
head -5.73474 0.915456 -1.11427
rclavicle 6.75868e-015 4.45278e-014
rhumerus -75.4585 53.1974 -108.995
rradius 84.9724
rwrist 19.2211
rhand -18.1105 16.8046
rfingers 7.12502
rthumb 8.16368 -13.0177
lclavicle 6.75868e-015 4.45278e-014
lhumerus -62.5734 -45.0103 102.589
lradius 83.2115
lwrist -8.94368
lhand 4.83245 -12.3242
lfingers 7.12502
lthumb 30.2101 15.2248
rfemur -14.3048 -3.79634 25.5186
rtibia 45.8893
rfoot -20.0886 -1.4256
rtoes -21.1033
lfemur -28.8503 -1.93037 -8.25958
ltibia 30.9532
lfoot -12.0489 -6.42927
ltoes 1.55425
605
root -23.9172 17.8443 -3.43794 -44.1541 78.8459 -51.1288
lowerback 15.7128 0.330796 1.28741
upperback 4.74856 0.935691 1.67171
thorax -3.77244 0.548555 0.848606
lowerneck 2.9496 1.06821 3.51034
upperneck -17.5902 1.91417 -1.24927
head -5.74867 0.945233 -1.10333
rclavicle 1.05356e-014 3.26007e-014
rhumerus -75.3914 53.4641 -108.851
rradius 85.2316
rwrist 19.275
rhand -18.0204 16.8555
rfingers 7.12502
rthumb 8.25061 -12.9634
lclavicle 1.05356e-014 3.26007e-014
lhumerus -62.4843 -44.661 102.538
lradius 83.0298
lwrist -8.89914
lhand 4.69683 -12.3875
lfingers 7.12502
lthumb 30.0808 15.1851
rfemur -14.9919 -3.55283 25.7274
rtibia 44.7763
rfoot -20.4516 -1.38678
rtoes -20.8644
lfemur -28.7303 -2.09167 -8.20471
ltibia 31.085
lfoot -12.0984 -6.35914
ltoes 1.38702
